# xmcd
#
# Track frame offsets: 
#        150
#        13875
#        25153
#        44812
#        57695
#        73671
#        87556
#        102974
#        116769
#        128403
#        140068
#        154582
#
# Disc length: 2233 seconds
#
# Revision: 0
# Processed by: cddbd v1.5.1PL0 Copyright (c) Steve Scherf et al.
# Submitted via: ExactAudioCopy v0.95a5
#
DISCID=b008b70c
DTITLE=Darrell Webb - Behind The Scenes
DYEAR=2004
DGENRE=Bluegrass
TTITLE0=I Beg You Little Darling Not To Cry
TTITLE1=Your Selfish Heart
TTITLE2=Thank You Father For My Dad
TTITLE3=Close The Door Lightly
TTITLE4=Behind The Scenes
TTITLE5=Get On The Path
TTITLE6=Twin Mountain Lovers
TTITLE7=The Lonesome Fugitive
TTITLE8=Mother's Hand
TTITLE9=Cold
TTITLE10=Imagine That
TTITLE11=Lover's Lane
EXTD=
EXTT0=
EXTT1=
EXTT2=
EXTT3=
EXTT4=
EXTT5=
EXTT6=
EXTT7=
EXTT8=
EXTT9=
EXTT10=
EXTT11=
PLAYORDER=
